Coordinates
version=1
nRows=10
nColumns=40
inDegrees=yes

Units are S.I. units (second, meters, Newtons, ...)
Angles are in degrees.

endheader
time	pelvis_tilt	pelvis_list	pelvis_rotation	pelvis_tx	pelvis_ty	pelvis_tz	hip_flexion_r	hip_adduction_r	hip_rotation_r	knee_angle_r	knee_angle_r_beta	ankle_angle_r	subtalar_angle_r	mtp_angle_r	hip_flexion_l	hip_adduction_l	hip_rotation_l	knee_angle_l	knee_angle_l_beta	ankle_angle_l	subtalar_angle_l	mtp_angle_l	lumbar_extension	lumbar_bending	lumbar_rotation	arm_flex_r	arm_add_r	arm_rot_r	elbow_flex_r	pro_sup_r	wrist_flex_r	wrist_dev_r	arm_flex_l	arm_add_l	arm_rot_l	elbow_flex_l	pro_sup_l	wrist_flex_l	wrist_dev_l
      0.00000000	      2.30920505	      0.31670072	     -3.62970647	     -1.24056503	      0.89811972	     -1.48770312	     23.87811792	     -0.69007136	     -9.03111716	    -34.75539511	     -0.60659608	      1.78829008	     -5.55857545	     -1.68756921	     -7.00129895	     -3.31015361	     12.23930547	    -11.53012876	     -0.20123871	     12.10716911	     -5.65882700	     -3.46568585	    -10.88187822	      3.50159026	     -4.65127024	      5.32548547	     -9.91641613	     17.12641327	     15.71573649	     89.95437384	      0.00000000	      0.00000000	     16.18627748	     12.43457882	    -18.16464058	     26.70308956	     89.95437384	      0.00000000	      0.00000000
      0.01000000	      2.06320577	      0.50486737	     -3.63725011	     -1.23402245	      0.89670396	     -1.48803640	     24.53873344	     -0.86675187	     -9.47820311	    -32.80555562	     -0.57256496	      1.18268066	     -5.13153528	     -1.58221696	     -7.14440848	     -3.52843595	     12.22334722	    -11.64989183	     -0.20332897	     12.34729315	     -5.85212208	     -3.55291510	    -10.73159979	      3.34224043	     -4.71578995	      5.18562929	     -9.79177756	     17.09075763	     15.95055933	     89.95437384	      0.00000000	      0.00000000	     16.42563918	     12.48696225	    -18.16036520	     27.20716475	     89.95437384	      0.00000000	      0.00000000
      0.02000000	      2.04499879	      0.42116894	     -3.59556853	     -1.22718312	      0.89564955	     -1.48826411	     24.78048663	     -0.86495478	    -10.36641929	    -30.68458274	     -0.53554700	      0.25780639	     -4.36429127	     -1.51676692	     -7.57876875	     -3.44021146	     12.28918189	    -11.78899869	     -0.20575684	     12.70863284	     -6.11010418	     -3.69173234	    -10.83749742	      3.47133683	     -4.72119517	      5.07575588	     -9.65781009	     16.99999072	     16.11419893	     89.95437384	      0.00000000	      0.00000000	     16.67216184	     12.50155150	    -18.30609837	     27.73091345	     89.95437384	      0.00000000	      0.00000000
      0.03000000	      1.81117017	      0.65450075	     -3.55825257	     -1.22045125	      0.89422818	     -1.48860747	     25.36107914	     -1.13725149	    -10.98639079	    -28.78919783	     -0.50246629	     -0.28786068	     -3.76961385	     -1.45899037	     -7.75078306	     -3.71518862	     12.34057129	    -11.86327426	     -0.20705320	     12.89861529	     -6.22141523	     -3.75838668	    -10.69538493	      3.26720661	     -4.79505225	      4.91717761	     -9.49809912	     16.93637471	     16.34968943	     89.95437384	      0.00000000	      0.00000000	     16.85481635	     12.50567604	    -18.28686539	     28.18480043	     89.95437384	      0.00000000	      0.00000000
      0.04000000	      1.94022954	      0.45561283	     -3.38260564	     -1.21320866	      0.89343761	     -1.48876522	     25.30250547	     -1.13628198	    -12.39774929	    -26.78060307	     -0.46740970	     -1.23835745	     -2.44073915	     -1.62940733	     -8.37006674	     -3.47347999	     12.38175876	    -12.01884782	     -0.20976847	     13.19387607	     -6.45037934	     -3.96659249	    -10.93392249	      3.49424638	     -4.83084027	      4.81370398	     -9.33426305	     16.63932660	     16.33748928	     89.95437384	      0.00000000	      0.00000000	     17.08017773	     12.40338732	    -18.19285716	     28.59361381	     89.95437384	      0.00000000	      0.00000000
      0.05000000	      1.87464786	      0.46085666	     -3.27147901	     -1.20619926	      0.89228439	     -1.48886962	     25.58253389	     -1.27982099	    -13.61138875	    -25.08083132	     -0.43774309	     -1.98459121	     -1.24770980	     -1.88074187	     -8.73143041	     -3.44947288	     12.33931692	    -12.18271885	     -0.21262856	     13.30108037	     -6.71706710	     -4.15277803	    -10.99701407	      3.49346658	     -4.83929620	      4.71133469	     -9.16874698	     16.54514861	     16.35390908	     89.95437384	      0.00000000	      0.00000000	     17.27420204	     12.31893148	    -18.05325216	     28.99249658	     89.95437384	      0.00000000	      0.00000000
      0.06000000	      1.62501490	      0.70291570	     -3.35931434	     -1.19914781	      0.89074388	     -1.48884665	     26.25563612	     -1.51091376	    -14.38761391	    -23.87245797	     -0.41665299	     -2.12144428	     -1.04557051	     -1.84875176	     -8.93274536	     -3.73958682	     12.39828795	    -12.26054131	     -0.21398681	     13.47995339	     -6.75830896	     -4.19326534	    -10.81189839	      3.21716163	     -4.61366651	      4.59375101	     -8.97934478	     16.57943069	     16.21083783	     89.95437384	      0.00000000	      0.00000000	     17.45892134	     12.16717465	    -18.00710125	     29.25049754	     89.95437384	      0.00000000	      0.00000000
      0.07000000	      1.86974128	      0.28730888	     -2.89527203	     -1.19158673	      0.89033802	     -1.48913767	     25.83465465	     -1.47302123	    -16.69699165	    -22.02733685	     -0.38444955	     -3.27103613	      1.78304203	     -2.80532568	     -9.60300490	     -3.13267279	     12.41517145	    -12.57744658	     -0.21951785	     13.52830433	     -7.51139601	     -4.60918645	    -11.22372400	      3.72550486	     -4.91785156	      4.62824506	     -8.78563719	     16.51835565	     16.01953060	     89.95437384	      0.00000000	      0.00000000	     17.55040442	     11.93417410	    -17.40111858	     29.56853922	     89.95437384	      0.00000000	      0.00000000
      0.08000000	      1.63254187	      0.42184136	     -3.02229516	     -1.18425770	      0.88894820	     -1.48862561	     26.44263294	     -1.52713860	    -17.42417908	    -21.11547336	     -0.36853453	     -3.20320202	      1.82441644	     -2.78817571	     -9.84103553	     -3.27724997	     12.46651620	    -12.64832927	     -0.22075499	     13.68297436	     -7.51743434	     -4.63831579	    -11.05967402	      3.52169580	     -4.58877928	      4.52844492	     -8.56074953	     16.62833167	     15.73796114	     89.95437384	      0.00000000	      0.00000000	     17.66234902	     11.78198706	    -17.37277036	     29.76408720	     89.95437384	      0.00000000	      0.00000000
      0.09000000	      1.96931776	     -0.20935514	     -2.52237007	     -1.17611614	      0.88885452	     -1.48856112	     25.68257789	     -1.12709137	    -19.49495661	    -19.31633584	     -0.33713366	     -3.83517835	      4.17227950	     -3.60117848	    -10.61727349	     -2.34962844	     12.68854796	    -13.04049474	     -0.22759957	     13.57642657	     -8.42700537	     -5.08885357	    -11.51445123	      4.23891279	     -4.88441591	      4.60147735	     -8.38052931	     16.84896557	     15.38724704	     89.95437384	      0.00000000	      0.00000000	     17.62043235	     11.47143783	    -16.61121150	     29.97015144	     89.95437384	      0.00000000	      0.00000000
